<?xml version="1.0" encoding="UTF-8" standalone="no"?>
<!DOCTYPE svg PUBLIC "-//W3C//DTD SVG 1.1//EN"
 "http://www.w3.org/Graphics/SVG/1.1/DTD/svg11.dtd">
<!-- Generated by graphviz version 2.38.0 (20140413.2041)
 -->
<!-- Title: snakemake_dag Pages: 1 -->
<svg width="752pt" height="404pt"
 viewBox="0.00 0.00 751.57 404.00" xmlns="http://www.w3.org/2000/svg" xmlns:xlink="http://www.w3.org/1999/xlink">
<g id="graph0" class="graph" transform="scale(1 1) rotate(0) translate(4 400)">
<title>snakemake_dag</title>
<polygon fill="white" stroke="none" points="-4,4 -4,-400 747.568,-400 747.568,4 -4,4"/>
<!-- 0 -->
<g id="node1" class="node"><title>0</title>
<path fill="none" stroke="#d8cb56" stroke-width="2" d="M334,-36C334,-36 304,-36 304,-36 298,-36 292,-30 292,-24 292,-24 292,-12 292,-12 292,-6 298,-0 304,-0 304,-0 334,-0 334,-0 340,-0 346,-6 346,-12 346,-12 346,-24 346,-24 346,-30 340,-36 334,-36"/>
<text text-anchor="middle" x="319" y="-15.5" font-family="sans" font-size="10.00">all</text>
</g>
<!-- 1 -->
<g id="node2" class="node"><title>1</title>
<path fill="none" stroke="#d85656" stroke-width="2" d="M44,-252C44,-252 12,-252 12,-252 6,-252 0,-246 0,-240 0,-240 0,-228 0,-228 0,-222 6,-216 12,-216 12,-216 44,-216 44,-216 50,-216 56,-222 56,-228 56,-228 56,-240 56,-240 56,-246 50,-252 44,-252"/>
<text text-anchor="middle" x="28" y="-231.5" font-family="sans" font-size="10.00">kraken2</text>
</g>
<!-- 1&#45;&gt;0 -->
<g id="edge1" class="edge"><title>1&#45;&gt;0</title>
<path fill="none" stroke="grey" stroke-width="2" d="M29.0794,-215.961C32.1248,-182.948 43.6603,-110.17 87,-72 115.604,-46.8073 223.499,-30.3971 281.525,-23.1967"/>
<polygon fill="grey" stroke="grey" stroke-width="2" points="282.242,-26.6356 291.749,-21.9594 281.401,-19.6863 282.242,-26.6356"/>
</g>
<!-- 15 -->
<g id="node16" class="node"><title>15</title>
<path fill="none" stroke="#70d856" stroke-width="2" d="M221.5,-180C221.5,-180 182.5,-180 182.5,-180 176.5,-180 170.5,-174 170.5,-168 170.5,-168 170.5,-156 170.5,-156 170.5,-150 176.5,-144 182.5,-144 182.5,-144 221.5,-144 221.5,-144 227.5,-144 233.5,-150 233.5,-156 233.5,-156 233.5,-168 233.5,-168 233.5,-174 227.5,-180 221.5,-180"/>
<text text-anchor="middle" x="202" y="-159.5" font-family="sans" font-size="10.00">summary</text>
</g>
<!-- 1&#45;&gt;15 -->
<g id="edge30" class="edge"><title>1&#45;&gt;15</title>
<path fill="none" stroke="grey" stroke-width="2" d="M56.3434,-221.597C84.7064,-210.187 128.638,-192.513 160.841,-179.558"/>
<polygon fill="grey" stroke="grey" stroke-width="2" points="162.457,-182.681 170.428,-175.702 159.844,-176.187 162.457,-182.681"/>
</g>
<!-- 2 -->
<g id="node3" class="node"><title>2</title>
<path fill="none" stroke="#d87556" stroke-width="2" d="M218,-396C218,-396 188,-396 188,-396 182,-396 176,-390 176,-384 176,-384 176,-372 176,-372 176,-366 182,-360 188,-360 188,-360 218,-360 218,-360 224,-360 230,-366 230,-372 230,-372 230,-384 230,-384 230,-390 224,-396 218,-396"/>
<text text-anchor="middle" x="203" y="-375.5" font-family="sans" font-size="10.00">fastp</text>
</g>
<!-- 2&#45;&gt;1 -->
<g id="edge15" class="edge"><title>2&#45;&gt;1</title>
<path fill="none" stroke="grey" stroke-width="2" d="M175.858,-372.319C146.495,-365.989 99.8812,-352.092 70,-324 52.2729,-307.335 41.2715,-281.67 34.9987,-262.175"/>
<polygon fill="grey" stroke="grey" stroke-width="2" points="38.2795,-260.93 32.0632,-252.35 31.5725,-262.934 38.2795,-260.93"/>
</g>
<!-- 4 -->
<g id="node5" class="node"><title>4</title>
<path fill="none" stroke="#5692d8" stroke-width="2" d="M337,-324C337,-324 307,-324 307,-324 301,-324 295,-318 295,-312 295,-312 295,-300 295,-300 295,-294 301,-288 307,-288 307,-288 337,-288 337,-288 343,-288 349,-294 349,-300 349,-300 349,-312 349,-312 349,-318 343,-324 337,-324"/>
<text text-anchor="middle" x="322" y="-303.5" font-family="sans" font-size="10.00">shovill</text>
</g>
<!-- 2&#45;&gt;4 -->
<g id="edge17" class="edge"><title>2&#45;&gt;4</title>
<path fill="none" stroke="grey" stroke-width="2" d="M230.003,-361.116C246.47,-351.429 267.728,-338.924 285.661,-328.376"/>
<polygon fill="grey" stroke="grey" stroke-width="2" points="287.847,-331.151 294.692,-323.064 284.298,-325.117 287.847,-331.151"/>
</g>
<!-- 6 -->
<g id="node7" class="node"><title>6</title>
<path fill="none" stroke="#c6d856" stroke-width="2" d="M136,-180C136,-180 106,-180 106,-180 100,-180 94,-174 94,-168 94,-168 94,-156 94,-156 94,-150 100,-144 106,-144 106,-144 136,-144 136,-144 142,-144 148,-150 148,-156 148,-156 148,-168 148,-168 148,-174 142,-180 136,-180"/>
<text text-anchor="middle" x="121" y="-159.5" font-family="sans" font-size="10.00">multiqc</text>
</g>
<!-- 2&#45;&gt;6 -->
<g id="edge20" class="edge"><title>2&#45;&gt;6</title>
<path fill="none" stroke="grey" stroke-width="2" d="M182.45,-359.641C158.064,-337.552 118.731,-296.844 103,-252 95.8235,-231.541 101.553,-207.378 108.393,-189.395"/>
<polygon fill="grey" stroke="grey" stroke-width="2" points="111.648,-190.682 112.232,-180.103 105.178,-188.009 111.648,-190.682"/>
</g>
<!-- 9 -->
<g id="node10" class="node"><title>9</title>
<path fill="none" stroke="#56d892" stroke-width="2" d="M538,-252C538,-252 500,-252 500,-252 494,-252 488,-246 488,-240 488,-240 488,-228 488,-228 488,-222 494,-216 500,-216 500,-216 538,-216 538,-216 544,-216 550,-222 550,-228 550,-228 550,-240 550,-240 550,-246 544,-252 538,-252"/>
<text text-anchor="middle" x="519" y="-231.5" font-family="sans" font-size="10.00">coverage</text>
</g>
<!-- 2&#45;&gt;9 -->
<g id="edge24" class="edge"><title>2&#45;&gt;9</title>
<path fill="none" stroke="grey" stroke-width="2" d="M230.151,-369.298C261.533,-360.036 314.45,-343.303 358,-324 402.437,-304.303 450.94,-276.571 482.97,-257.318"/>
<polygon fill="grey" stroke="grey" stroke-width="2" points="484.806,-260.298 491.55,-252.127 481.182,-254.309 484.806,-260.298"/>
</g>
<!-- 3 -->
<g id="node4" class="node"><title>3</title>
<path fill="none" stroke="#56d8c9" stroke-width="2" d="M165.5,-252C165.5,-252 124.5,-252 124.5,-252 118.5,-252 112.5,-246 112.5,-240 112.5,-240 112.5,-228 112.5,-228 112.5,-222 118.5,-216 124.5,-216 124.5,-216 165.5,-216 165.5,-216 171.5,-216 177.5,-222 177.5,-228 177.5,-228 177.5,-240 177.5,-240 177.5,-246 171.5,-252 165.5,-252"/>
<text text-anchor="middle" x="145" y="-231.5" font-family="sans" font-size="10.00">amrfinder</text>
</g>
<!-- 3&#45;&gt;0 -->
<g id="edge11" class="edge"><title>3&#45;&gt;0</title>
<path fill="none" stroke="grey" stroke-width="2" d="M116.74,-215.971C104.568,-206.957 91.6275,-194.697 85,-180 63.762,-132.902 86.9191,-103.33 128,-72 173.435,-37.3487 240.285,-25.3509 281.654,-21.1977"/>
<polygon fill="grey" stroke="grey" stroke-width="2" points="282.201,-24.6628 291.848,-20.2817 281.575,-17.6909 282.201,-24.6628"/>
</g>
<!-- 3&#45;&gt;15 -->
<g id="edge33" class="edge"><title>3&#45;&gt;15</title>
<path fill="none" stroke="grey" stroke-width="2" d="M159.09,-215.697C165.923,-207.305 174.257,-197.07 181.756,-187.861"/>
<polygon fill="grey" stroke="grey" stroke-width="2" points="184.472,-190.069 188.072,-180.104 179.044,-185.649 184.472,-190.069"/>
</g>
<!-- 4&#45;&gt;3 -->
<g id="edge16" class="edge"><title>4&#45;&gt;3</title>
<path fill="none" stroke="grey" stroke-width="2" d="M294.816,-294.425C267.53,-283.786 224.305,-266.872 187,-252 186.904,-251.962 186.808,-251.923 186.712,-251.885"/>
<polygon fill="grey" stroke="grey" stroke-width="2" points="188.13,-248.683 177.546,-248.213 185.527,-255.181 188.13,-248.683"/>
</g>
<!-- 5 -->
<g id="node6" class="node"><title>5</title>
<path fill="none" stroke="#59d856" stroke-width="2" d="M458,-252C458,-252 428,-252 428,-252 422,-252 416,-246 416,-240 416,-240 416,-228 416,-228 416,-222 422,-216 428,-216 428,-216 458,-216 458,-216 464,-216 470,-222 470,-228 470,-228 470,-240 470,-240 470,-246 464,-252 458,-252"/>
<text text-anchor="middle" x="443" y="-231.5" font-family="sans" font-size="10.00">prokka</text>
</g>
<!-- 4&#45;&gt;5 -->
<g id="edge18" class="edge"><title>4&#45;&gt;5</title>
<path fill="none" stroke="grey" stroke-width="2" d="M349.155,-289.291C366.28,-279.383 388.589,-266.477 407.159,-255.734"/>
<polygon fill="grey" stroke="grey" stroke-width="2" points="409.033,-258.694 415.936,-250.657 405.527,-252.635 409.033,-258.694"/>
</g>
<!-- 7 -->
<g id="node8" class="node"><title>7</title>
<path fill="none" stroke="#afd856" stroke-width="2" d="M238,-252C238,-252 208,-252 208,-252 202,-252 196,-246 196,-240 196,-240 196,-228 196,-228 196,-222 202,-216 208,-216 208,-216 238,-216 238,-216 244,-216 250,-222 250,-228 250,-228 250,-240 250,-240 250,-246 244,-252 238,-252"/>
<text text-anchor="middle" x="223" y="-231.5" font-family="sans" font-size="10.00">quast</text>
</g>
<!-- 4&#45;&gt;7 -->
<g id="edge21" class="edge"><title>4&#45;&gt;7</title>
<path fill="none" stroke="grey" stroke-width="2" d="M297.782,-287.876C285.077,-278.893 269.336,-267.763 255.577,-258.034"/>
<polygon fill="grey" stroke="grey" stroke-width="2" points="257.497,-255.105 247.311,-252.19 253.456,-260.821 257.497,-255.105"/>
</g>
<!-- 8 -->
<g id="node9" class="node"><title>8</title>
<path fill="none" stroke="#56c9d8" stroke-width="2" d="M310,-252C310,-252 280,-252 280,-252 274,-252 268,-246 268,-240 268,-240 268,-228 268,-228 268,-222 274,-216 280,-216 280,-216 310,-216 310,-216 316,-216 322,-222 322,-228 322,-228 322,-240 322,-240 322,-246 316,-252 310,-252"/>
<text text-anchor="middle" x="295" y="-231.5" font-family="sans" font-size="10.00">mlst</text>
</g>
<!-- 4&#45;&gt;8 -->
<g id="edge22" class="edge"><title>4&#45;&gt;8</title>
<path fill="none" stroke="grey" stroke-width="2" d="M315.326,-287.697C312.285,-279.813 308.617,-270.304 305.239,-261.546"/>
<polygon fill="grey" stroke="grey" stroke-width="2" points="308.462,-260.175 301.597,-252.104 301.931,-262.694 308.462,-260.175"/>
</g>
<!-- 4&#45;&gt;9 -->
<g id="edge23" class="edge"><title>4&#45;&gt;9</title>
<path fill="none" stroke="grey" stroke-width="2" d="M349.17,-296.523C378.806,-287.127 427.793,-271.156 478.221,-252.171"/>
<polygon fill="grey" stroke="grey" stroke-width="2" points="479.542,-255.413 487.649,-248.591 477.058,-248.868 479.542,-255.413"/>
</g>
<!-- 10 -->
<g id="node11" class="node"><title>10</title>
<path fill="none" stroke="#56a9d8" stroke-width="2" d="M334,-180C334,-180 302,-180 302,-180 296,-180 290,-174 290,-168 290,-168 290,-156 290,-156 290,-150 296,-144 302,-144 302,-144 334,-144 334,-144 340,-144 346,-150 346,-156 346,-156 346,-168 346,-168 346,-174 340,-180 334,-180"/>
<text text-anchor="middle" x="318" y="-159.5" font-family="sans" font-size="10.00">abricate</text>
</g>
<!-- 4&#45;&gt;10 -->
<g id="edge25" class="edge"><title>4&#45;&gt;10</title>
<path fill="none" stroke="grey" stroke-width="2" d="M325.97,-287.916C329.613,-269.983 334.019,-240.977 331,-216 329.977,-207.535 328.067,-198.471 326.019,-190.276"/>
<polygon fill="grey" stroke="grey" stroke-width="2" points="329.364,-189.234 323.409,-180.471 322.599,-191.034 329.364,-189.234"/>
</g>
<!-- 11 -->
<g id="node12" class="node"><title>11</title>
<path fill="none" stroke="#d8ac56" stroke-width="2" d="M462,-180C462,-180 376,-180 376,-180 370,-180 364,-174 364,-168 364,-168 364,-156 364,-156 364,-150 370,-144 376,-144 376,-144 462,-144 462,-144 468,-144 474,-150 474,-156 474,-156 474,-168 474,-168 474,-174 468,-180 462,-180"/>
<text text-anchor="middle" x="419" y="-159.5" font-family="sans" font-size="10.00">abricate_customdb</text>
</g>
<!-- 4&#45;&gt;11 -->
<g id="edge26" class="edge"><title>4&#45;&gt;11</title>
<path fill="none" stroke="grey" stroke-width="2" d="M333.7,-287.871C350.596,-263.137 381.947,-217.242 401.573,-188.512"/>
<polygon fill="grey" stroke="grey" stroke-width="2" points="404.507,-190.421 407.258,-180.189 398.727,-186.472 404.507,-190.421"/>
</g>
<!-- 5&#45;&gt;0 -->
<g id="edge7" class="edge"><title>5&#45;&gt;0</title>
<path fill="none" stroke="grey" stroke-width="2" d="M459.808,-215.977C488.487,-184.845 540.572,-117.732 506,-72 487.952,-48.1261 405.134,-31.8908 355.969,-24.1706"/>
<polygon fill="grey" stroke="grey" stroke-width="2" points="356.438,-20.7017 346.024,-22.6528 355.382,-27.6215 356.438,-20.7017"/>
</g>
<!-- 12 -->
<g id="node13" class="node"><title>12</title>
<path fill="none" stroke="#d88d56" stroke-width="2" d="M615,-180C615,-180 585,-180 585,-180 579,-180 573,-174 573,-168 573,-168 573,-156 573,-156 573,-150 579,-144 585,-144 585,-144 615,-144 615,-144 621,-144 627,-150 627,-156 627,-156 627,-168 627,-168 627,-174 621,-180 615,-180"/>
<text text-anchor="middle" x="600" y="-159.5" font-family="sans" font-size="10.00">roary</text>
</g>
<!-- 5&#45;&gt;12 -->
<g id="edge27" class="edge"><title>5&#45;&gt;12</title>
<path fill="none" stroke="grey" stroke-width="2" d="M470.089,-220.108C473.09,-218.709 476.106,-217.317 479,-216 507.254,-203.144 539.456,-189.067 563.533,-178.653"/>
<polygon fill="grey" stroke="grey" stroke-width="2" points="565.196,-181.747 572.99,-174.571 562.422,-175.321 565.196,-181.747"/>
</g>
<!-- 6&#45;&gt;0 -->
<g id="edge4" class="edge"><title>6&#45;&gt;0</title>
<path fill="none" stroke="grey" stroke-width="2" d="M122.439,-143.829C125.017,-123.89 132.177,-91.2783 152,-72 187.181,-37.7861 244.345,-25.6463 281.812,-21.3466"/>
<polygon fill="grey" stroke="grey" stroke-width="2" points="282.227,-24.8225 291.822,-20.3299 281.52,-17.8583 282.227,-24.8225"/>
</g>
<!-- 7&#45;&gt;6 -->
<g id="edge19" class="edge"><title>7&#45;&gt;6</title>
<path fill="none" stroke="grey" stroke-width="2" d="M198.048,-215.876C184.958,-206.893 168.74,-195.763 154.564,-186.034"/>
<polygon fill="grey" stroke="grey" stroke-width="2" points="156.274,-182.962 146.048,-180.19 152.313,-188.734 156.274,-182.962"/>
</g>
<!-- 7&#45;&gt;15 -->
<g id="edge31" class="edge"><title>7&#45;&gt;15</title>
<path fill="none" stroke="grey" stroke-width="2" d="M217.809,-215.697C215.469,-207.898 212.653,-198.509 210.049,-189.829"/>
<polygon fill="grey" stroke="grey" stroke-width="2" points="213.357,-188.677 207.131,-180.104 206.652,-190.688 213.357,-188.677"/>
</g>
<!-- 8&#45;&gt;0 -->
<g id="edge12" class="edge"><title>8&#45;&gt;0</title>
<path fill="none" stroke="grey" stroke-width="2" d="M289.176,-215.56C286.069,-205.33 282.569,-192.08 281,-180 274.76,-131.943 293.255,-77.2902 306.589,-45.6155"/>
<polygon fill="grey" stroke="grey" stroke-width="2" points="309.916,-46.7423 310.699,-36.1764 303.498,-43.9477 309.916,-46.7423"/>
</g>
<!-- 8&#45;&gt;15 -->
<g id="edge34" class="edge"><title>8&#45;&gt;15</title>
<path fill="none" stroke="grey" stroke-width="2" d="M272.011,-215.697C260.186,-206.796 245.608,-195.823 232.821,-186.199"/>
<polygon fill="grey" stroke="grey" stroke-width="2" points="234.819,-183.322 224.724,-180.104 230.609,-188.915 234.819,-183.322"/>
</g>
<!-- 9&#45;&gt;0 -->
<g id="edge9" class="edge"><title>9&#45;&gt;0</title>
<path fill="none" stroke="grey" stroke-width="2" d="M550.062,-224.268C622.483,-202.47 791.843,-142.33 730,-72 705.473,-44.1068 453.069,-26.7267 356.394,-21.0492"/>
<polygon fill="grey" stroke="grey" stroke-width="2" points="356.383,-17.5428 346.198,-20.4601 355.98,-24.5312 356.383,-17.5428"/>
</g>
<!-- 9&#45;&gt;15 -->
<g id="edge32" class="edge"><title>9&#45;&gt;15</title>
<path fill="none" stroke="grey" stroke-width="2" d="M487.8,-218.964C484.856,-217.876 481.891,-216.866 479,-216 393.314,-190.35 368.732,-197.41 281,-180 268.852,-177.589 255.687,-174.819 243.652,-172.225"/>
<polygon fill="grey" stroke="grey" stroke-width="2" points="244.371,-168.799 233.856,-170.099 242.886,-175.64 244.371,-168.799"/>
</g>
<!-- 10&#45;&gt;0 -->
<g id="edge13" class="edge"><title>10&#45;&gt;0</title>
<path fill="none" stroke="grey" stroke-width="2" d="M318.121,-143.871C318.291,-119.67 318.604,-75.2108 318.807,-46.3932"/>
<polygon fill="grey" stroke="grey" stroke-width="2" points="322.308,-46.2137 318.879,-36.1893 315.309,-46.1643 322.308,-46.2137"/>
</g>
<!-- 11&#45;&gt;0 -->
<g id="edge3" class="edge"><title>11&#45;&gt;0</title>
<path fill="none" stroke="grey" stroke-width="2" d="M393.922,-143.849C381.549,-134.405 367.143,-121.81 357,-108 343.154,-89.1489 333.129,-64.4799 326.864,-45.896"/>
<polygon fill="grey" stroke="grey" stroke-width="2" points="330.163,-44.7219 323.77,-36.2732 323.499,-46.8646 330.163,-44.7219"/>
</g>
<!-- 17 -->
<g id="node18" class="node"><title>17</title>
<path fill="none" stroke="#56d8a9" stroke-width="2" d="M485.5,-108C485.5,-108 378.5,-108 378.5,-108 372.5,-108 366.5,-102 366.5,-96 366.5,-96 366.5,-84 366.5,-84 366.5,-78 372.5,-72 378.5,-72 378.5,-72 485.5,-72 485.5,-72 491.5,-72 497.5,-78 497.5,-84 497.5,-84 497.5,-96 497.5,-96 497.5,-102 491.5,-108 485.5,-108"/>
<text text-anchor="middle" x="432" y="-87.5" font-family="sans" font-size="10.00">abricate_to_phandango</text>
</g>
<!-- 11&#45;&gt;17 -->
<g id="edge36" class="edge"><title>11&#45;&gt;17</title>
<path fill="none" stroke="grey" stroke-width="2" d="M422.213,-143.697C423.646,-135.983 425.368,-126.712 426.965,-118.112"/>
<polygon fill="grey" stroke="grey" stroke-width="2" points="430.439,-118.575 428.823,-108.104 423.556,-117.297 430.439,-118.575"/>
</g>
<!-- 12&#45;&gt;0 -->
<g id="edge2" class="edge"><title>12&#45;&gt;0</title>
<path fill="none" stroke="grey" stroke-width="2" d="M593.048,-143.73C583.947,-123.379 566.029,-90.0569 540,-72 483.941,-33.1104 402.78,-22.5766 356.006,-19.8353"/>
<polygon fill="grey" stroke="grey" stroke-width="2" points="356.171,-16.3393 346.009,-19.3382 355.823,-23.3307 356.171,-16.3393"/>
</g>
<!-- 13 -->
<g id="node14" class="node"><title>13</title>
<path fill="none" stroke="#56d873" stroke-width="2" d="M634,-108C634,-108 604,-108 604,-108 598,-108 592,-102 592,-96 592,-96 592,-84 592,-84 592,-78 598,-72 604,-72 604,-72 634,-72 634,-72 640,-72 646,-78 646,-84 646,-84 646,-96 646,-96 646,-102 640,-108 634,-108"/>
<text text-anchor="middle" x="619" y="-87.5" font-family="sans" font-size="10.00">iqtree</text>
</g>
<!-- 12&#45;&gt;13 -->
<g id="edge28" class="edge"><title>12&#45;&gt;13</title>
<path fill="none" stroke="grey" stroke-width="2" d="M604.697,-143.697C606.813,-135.898 609.362,-126.509 611.718,-117.829"/>
<polygon fill="grey" stroke="grey" stroke-width="2" points="615.116,-118.672 614.357,-108.104 608.36,-116.838 615.116,-118.672"/>
</g>
<!-- 14 -->
<g id="node15" class="node"><title>14</title>
<path fill="none" stroke="#8fd856" stroke-width="2" d="M709.5,-108C709.5,-108 676.5,-108 676.5,-108 670.5,-108 664.5,-102 664.5,-96 664.5,-96 664.5,-84 664.5,-84 664.5,-78 670.5,-72 676.5,-72 676.5,-72 709.5,-72 709.5,-72 715.5,-72 721.5,-78 721.5,-84 721.5,-84 721.5,-96 721.5,-96 721.5,-102 715.5,-108 709.5,-108"/>
<text text-anchor="middle" x="693" y="-87.5" font-family="sans" font-size="10.00">snpdists</text>
</g>
<!-- 12&#45;&gt;14 -->
<g id="edge29" class="edge"><title>12&#45;&gt;14</title>
<path fill="none" stroke="grey" stroke-width="2" d="M622.989,-143.697C634.814,-134.796 649.392,-123.823 662.179,-114.199"/>
<polygon fill="grey" stroke="grey" stroke-width="2" points="664.391,-116.915 670.276,-108.104 660.181,-111.322 664.391,-116.915"/>
</g>
<!-- 13&#45;&gt;0 -->
<g id="edge8" class="edge"><title>13&#45;&gt;0</title>
<path fill="none" stroke="grey" stroke-width="2" d="M591.919,-76.9208C587.328,-75.1193 582.568,-73.4002 578,-72 500.776,-48.3273 407.331,-32.1555 356.46,-24.3588"/>
<polygon fill="grey" stroke="grey" stroke-width="2" points="356.682,-20.8527 346.272,-22.8224 355.638,-27.7745 356.682,-20.8527"/>
</g>
<!-- 14&#45;&gt;0 -->
<g id="edge5" class="edge"><title>14&#45;&gt;0</title>
<path fill="none" stroke="grey" stroke-width="2" d="M664.254,-75.1957C661.172,-74.001 658.049,-72.9049 655,-72 549.304,-40.6251 419.067,-26.8241 356.3,-21.6514"/>
<polygon fill="grey" stroke="grey" stroke-width="2" points="356.349,-18.1442 346.102,-20.8385 355.792,-25.1221 356.349,-18.1442"/>
</g>
<!-- 15&#45;&gt;0 -->
<g id="edge6" class="edge"><title>15&#45;&gt;0</title>
<path fill="none" stroke="grey" stroke-width="2" d="M183.928,-143.896C166.379,-125.173 144.609,-94.7871 161,-72 188.334,-33.9999 244.225,-22.8623 281.66,-19.8113"/>
<polygon fill="grey" stroke="grey" stroke-width="2" points="281.943,-23.3004 291.691,-19.1496 281.482,-16.3155 281.943,-23.3004"/>
</g>
<!-- 16 -->
<g id="node17" class="node"><title>16</title>
<path fill="none" stroke="#5673d8" stroke-width="2" d="M221.5,-108C221.5,-108 182.5,-108 182.5,-108 176.5,-108 170.5,-102 170.5,-96 170.5,-96 170.5,-84 170.5,-84 170.5,-78 176.5,-72 182.5,-72 182.5,-72 221.5,-72 221.5,-72 227.5,-72 233.5,-78 233.5,-84 233.5,-84 233.5,-96 233.5,-96 233.5,-102 227.5,-108 221.5,-108"/>
<text text-anchor="middle" x="202" y="-87.5" font-family="sans" font-size="10.00">itolparser</text>
</g>
<!-- 15&#45;&gt;16 -->
<g id="edge35" class="edge"><title>15&#45;&gt;16</title>
<path fill="none" stroke="grey" stroke-width="2" d="M202,-143.697C202,-135.983 202,-126.712 202,-118.112"/>
<polygon fill="grey" stroke="grey" stroke-width="2" points="205.5,-118.104 202,-108.104 198.5,-118.104 205.5,-118.104"/>
</g>
<!-- 16&#45;&gt;0 -->
<g id="edge14" class="edge"><title>16&#45;&gt;0</title>
<path fill="none" stroke="grey" stroke-width="2" d="M230.621,-71.8761C246.376,-62.4504 266.082,-50.6602 282.886,-40.6065"/>
<polygon fill="grey" stroke="grey" stroke-width="2" points="285.095,-43.3634 291.88,-35.2257 281.501,-37.3564 285.095,-43.3634"/>
</g>
<!-- 17&#45;&gt;0 -->
<g id="edge10" class="edge"><title>17&#45;&gt;0</title>
<path fill="none" stroke="grey" stroke-width="2" d="M404.357,-71.8761C389.472,-62.6553 370.934,-51.1717 354.941,-41.2646"/>
<polygon fill="grey" stroke="grey" stroke-width="2" points="356.702,-38.238 346.358,-35.9471 353.015,-44.1887 356.702,-38.238"/>
</g>
</g>
</svg>
